<svg xmlns="http://www.w3.org/2000/svg" version="1.1" viewBox="-5.0 -10.0 110.0 135.0">
 <path fill="#767676" d="m89.168 42.777-6.7109-1.6875c-0.38281-0.10547-0.70703-0.40625-0.83203-0.8125-0.62109-1.9883-1.4102-3.9336-2.3711-5.7461-0.21484-0.38281-0.21484-0.83203 0-1.1758l3.5469-5.9414c0.76953-1.3047 0.57812-2.9688-0.51172-4.0391l-5.6641-5.6641c-1.0703-1.0898-2.7344-1.2812-4.0391-0.51172l-5.9414 3.5469c-0.34375 0.21484-0.78906 0.21484-1.1758 0-1.8164-0.96094-3.7383-1.7539-5.7461-2.3711-0.40625-0.12891-0.70703-0.42578-0.8125-0.83203l-1.6875-6.7109c-0.36328-1.4727-1.6875-2.5-3.2266-2.5h-7.9922c-1.5156 0-2.8633 1.0273-3.2266 2.5l-1.6875 6.7109c-0.10547 0.40625-0.40625 0.70703-0.8125 0.83203-1.9883 0.62109-3.9336 1.4102-5.7461 2.3711-0.38281 0.21484-0.83203 0.21484-1.1758 0l-5.9414-3.5469c-1.3047-0.76953-2.9688-0.57812-4.0391 0.51172l-5.6641 5.6641c-1.0898 1.0703-1.2812 2.7344-0.51172 4.0391l3.5469 5.9414c0.21484 0.34375 0.21484 0.78906 0 1.1758-0.96094 1.8164-1.7539 3.7617-2.3711 5.7461-0.12891 0.40625-0.44922 0.70703-0.83203 0.8125l-6.7109 1.6875c-1.4727 0.36328-2.5 1.6875-2.5 3.2266v7.9922c0 1.5391 1.0273 2.8633 2.5 3.2266l6.7109 1.6875c0.38281 0.10547 0.70703 0.40625 0.83203 0.8125 0.62109 1.9883 1.4102 3.9336 2.3711 5.7695 0.21484 0.36328 0.21484 0.8125 0 1.1523l-3.5469 5.9414c-0.76953 1.3047-0.57812 2.9688 0.51172 4.0391l5.6641 5.6641c1.0703 1.0898 2.7344 1.2812 4.0391 0.51172l5.9414-3.5469c0.34375-0.21484 0.78906-0.21484 1.1758 0 1.8164 0.96094 3.7383 1.7539 5.7461 2.3711 0.40625 0.12891 0.70703 0.42578 0.8125 0.83203l1.6875 6.7109c0.36328 1.4727 1.6875 2.5 3.2266 2.5h7.9922c1.5391 0 2.8633-1.0273 3.2266-2.5l1.6875-6.7109c0.10547-0.40625 0.40625-0.70703 0.8125-0.83203 2.0078-0.62109 3.9336-1.4102 5.7461-2.3711 0.38281-0.21484 0.83203-0.21484 1.1758 0l5.9414 3.5469c1.3047 0.76953 2.9688 0.57812 4.0391-0.51172l5.6641-5.6641c1.0898-1.0703 1.2812-2.7344 0.51172-4.0391l-3.5469-5.9414c-0.21484-0.34375-0.21484-0.78906 0-1.1758 0.96094-1.8164 1.7539-3.7617 2.3711-5.7461 0.12891-0.40625 0.44922-0.70703 0.83203-0.8125l6.7109-1.6875c1.4727-0.36328 2.5-1.6875 2.5-3.2266v-7.9922c0-1.5391-1.0273-2.8633-2.5-3.2266zm-17.801 7.2227c0 11.773-9.5938 21.367-21.367 21.367-28.352-1.1992-28.344-41.539 0-42.734 11.773 0 21.367 9.5938 21.367 21.367z"/>
</svg>
